<svg xmlns="http://www.w3.org/2000/svg" xmlns:xlink="http://www.w3.org/1999/xlink" width="500" zoomAndPan="magnify" viewBox="0 0 375 374.999991" height="500" preserveAspectRatio="xMidYMid meet" version="1.0"><path fill="#5c3d6f" d="M 375 187.503906 C 375 291.050781 291.050781 375 187.503906 375 C 83.945312 375 0 291.050781 0 187.503906 C 0 83.945312 83.945312 0 187.503906 0 C 291.050781 0 375 83.945312 375 187.503906 " fill-opacity="1" fill-rule="nonzero"/><path stroke-linecap="round" transform="matrix(0.146944, 0, 0, -0.146944, -124.902028, 499.902039)" fill-opacity="1" fill="#5c3d6f" fill-rule="nonzero" stroke-linejoin="round" d="M 1916.868853 1737.511179 C 1535.929686 1835.603679 1434.248436 1808.727929 1403.039603 1707.711262 C 1390.040353 1665.603262 1433.07877 1544.117428 1811.864687 1484.570762 C 1957.03627 1461.762262 2016.13102 1462.001512 2126.02652 1462.001512 C 2235.868854 1462.001512 2294.910437 1461.762262 2440.16177 1484.570762 C 2818.947687 1544.117428 2861.959521 1665.603262 2848.933687 1707.711262 C 2817.724854 1808.727929 2723.167937 1840.043095 2335.104437 1737.511179 " stroke="#ffffff" stroke-width="40" stroke-opacity="1" stroke-miterlimit="10"/><path stroke-linecap="round" transform="matrix(0.146944, 0, 0, -0.146944, -124.902028, 499.902039)" fill="none" stroke-linejoin="round" d="M 1923.62102 1737.511179 C 2005.497687 1786.876429 1975.086353 1908.707845 1947.70552 1994.146679 " stroke="#ffffff" stroke-width="40" stroke-opacity="1" stroke-miterlimit="10"/><path stroke-linecap="round" transform="matrix(0.146944, 0, 0, -0.146944, -124.902028, 499.902039)" fill="none" stroke-linejoin="round" d="M 2337.470354 1737.511179 C 2255.62027 1786.876429 2286.00502 1908.707845 2313.43902 1994.146679 " stroke="#ffffff" stroke-width="40" stroke-opacity="1" stroke-miterlimit="10"/><path stroke-linecap="round" transform="matrix(0.146944, 0, 0, -0.146944, -124.902028, 499.902039)" fill-opacity="1" fill="#5c3d6f" fill-rule="nonzero" stroke-linejoin="round" d="M 2292.22552 2483.678763 C 2328.405437 2477.458263 2395.66127 2483.838263 2483.785021 2434.100846 C 2518.237021 2414.668429 2583.552271 2319.393762 2613.006604 2268.991762 C 2725.666771 2076.289179 2754.456521 1990.398429 2724.098354 1952.783012 C 2698.445437 1920.989345 2378.541604 1936.700095 2200.67252 2036.999012 C 2141.710687 2070.281346 2143.677854 2124.059429 2143.863937 2233.290346 " stroke="#ffffff" stroke-width="40" stroke-opacity="1" stroke-miterlimit="10"/><path stroke-linecap="round" transform="matrix(0.146944, 0, 0, -0.146944, -124.902028, 499.902039)" fill-opacity="1" fill="#5c3d6f" fill-rule="nonzero" stroke-linejoin="round" d="M 1963.522603 2483.120513 C 1927.316103 2476.793679 1860.033687 2482.934429 1771.803603 2432.931179 C 1737.218687 2413.365846 1671.61102 2317.851929 1641.997187 2267.396762 C 1528.672436 2074.348596 1499.643436 1988.324929 1529.842103 1950.815845 C 1555.388686 1919.155095 1875.345687 1935.876012 2053.560354 2036.759762 C 2112.655104 2070.254762 2110.63477 2123.926512 2110.79427 2233.210596 " stroke="#ffffff" stroke-width="40" stroke-opacity="1" stroke-miterlimit="10"/><path fill="#5c3d6f" d="M 214.679688 92.96875 C 214.679688 110.316406 202.507812 124.375 187.503906 124.375 C 172.492188 124.375 160.324219 110.316406 160.324219 92.96875 C 160.324219 75.628906 172.492188 61.566406 187.503906 61.566406 C 202.507812 61.566406 214.679688 75.628906 214.679688 92.96875 " fill-opacity="1" fill-rule="nonzero"/><path stroke-linecap="round" transform="matrix(0.146944, 0, 0, -0.146944, -124.902028, 499.902039)" fill="none" stroke-linejoin="round" d="M 2310.96677 2769.316679 C 2310.96677 2651.260096 2228.133104 2555.586679 2126.02652 2555.586679 C 2023.86677 2555.586679 1941.059687 2651.260096 1941.059687 2769.316679 C 1941.059687 2887.320096 2023.86677 2983.020096 2126.02652 2983.020096 C 2228.133104 2983.020096 2310.96677 2887.320096 2310.96677 2769.316679 Z M 2310.96677 2769.316679 " stroke="#ffffff" stroke-width="40" stroke-opacity="1" stroke-miterlimit="10"/></svg>