<svg xmlns="http://www.w3.org/2000/svg" xmlns:xlink="http://www.w3.org/1999/xlink" width="500" zoomAndPan="magnify" viewBox="0 0 375 374.999991" height="500" preserveAspectRatio="xMidYMid meet" version="1.0"><path fill="#d4b86a" d="M 375 187.503906 C 375 291.050781 291.050781 375 187.503906 375 C 83.945312 375 0 291.050781 0 187.503906 C 0 83.945312 83.945312 0 187.503906 0 C 291.050781 0 375 83.945312 375 187.503906 " fill-opacity="1" fill-rule="nonzero"/><path stroke-linecap="round" transform="matrix(0.146944, 0, 0, -0.146944, -124.902028, 499.902039)" fill="none" stroke-linejoin="round" d="M 2229.249604 2849.06668 C 2183.12752 2865.17618 2129.69502 2945.856596 2122.809937 2970.898096 C 2115.97802 2945.856596 2062.54552 2865.17618 2016.396853 2849.06668 C 1888.318353 2804.300346 1768.640187 2672.473596 1769.570603 2435.722429 C 1770.235187 2268.300596 1852.696687 2115.286929 2122.809937 2116.935096 C 2401.64252 2115.286929 2475.437854 2268.300596 2476.102437 2435.722429 C 2477.032854 2672.473596 2357.354687 2804.300346 2229.249604 2849.06668 Z M 2229.249604 2849.06668 " stroke="#ffffff" stroke-width="40" stroke-opacity="1" stroke-miterlimit="10"/><path stroke-linecap="round" transform="matrix(0.146944, 0, 0, -0.146944, -124.902028, 499.902039)" fill="none" stroke-linejoin="round" d="M 2759.879521 2493.169013 C 2743.504187 2539.184763 2772.825604 2631.375763 2788.057854 2652.456346 C 2764.212604 2642.088846 2667.901187 2633.130263 2626.404604 2658.942679 C 2511.219021 2730.637929 2333.429687 2741.218096 2149.659104 2592.005846 C 2019.64002 2486.496596 1952.198103 2326.332012 2122.809937 2116.935096 C 2296.399104 1898.712512 2461.880354 1937.205179 2592.696937 2041.651096 C 2777.690354 2189.374679 2805.310437 2365.276596 2759.879521 2493.169013 Z M 2759.879521 2493.169013 " stroke="#ffffff" stroke-width="40" stroke-opacity="1" stroke-miterlimit="10"/><path stroke-linecap="round" transform="matrix(0.146944, 0, 0, -0.146944, -124.902028, 499.902039)" fill="none" stroke-linejoin="round" d="M 2815.385521 1856.657679 C 2840.985271 1898.260595 2931.182521 1933.244262 2957.154438 1934.626595 C 2934.133271 1946.642262 2866.717937 2016.051346 2860.816437 2064.565929 C 2844.441104 2199.263679 2741.218021 2344.355512 2509.730354 2393.960012 C 2346.003604 2429.023429 2178.90077 2381.173429 2122.809937 2116.935096 C 2061.721437 1844.881262 2195.462187 1740.116345 2358.869937 1703.723762 C 2589.958854 1652.285012 2744.301687 1741.073345 2815.385521 1856.657679 Z M 2815.385521 1856.657679 " stroke="#ffffff" stroke-width="40" stroke-opacity="1" stroke-miterlimit="10"/><path stroke-linecap="round" transform="matrix(0.146944, 0, 0, -0.146944, -124.902028, 499.902039)" fill="none" stroke-linejoin="round" d="M 2354.403937 1414.231262 C 2402.891937 1420.398595 2486.682604 1372.070095 2504.014937 1352.690845 C 2498.990687 1378.210845 2510.793687 1474.229845 2544.846937 1509.213512 C 2639.483604 1606.481929 2687.785521 1777.864679 2581.239521 1989.308512 C 2505.928937 2138.786596 2363.84102 2238.952596 2122.809937 2116.935096 C 1872.607603 1993.907429 1874.89377 1824.066512 1949.034687 1673.950429 C 2053.826187 1461.682512 2219.81252 1397.111595 2354.403937 1414.231262 Z M 2354.403937 1414.231262 " stroke="#ffffff" stroke-width="40" stroke-opacity="1" stroke-miterlimit="10"/><path stroke-linecap="round" transform="matrix(0.146944, 0, 0, -0.146944, -124.902028, 499.902039)" fill="none" stroke-linejoin="round" d="M 1720.710437 1495.868678 C 1755.90677 1462.001512 1770.82002 1366.407845 1766.59327 1340.754928 C 1783.287603 1360.665845 1865.509853 1411.679262 1914.13077 1407.106928 C 2049.253854 1394.373512 2213.03377 1464.234512 2310.88702 1679.825345 C 2380.11002 1832.227595 2369.02477 2005.710429 2122.809937 2116.935096 C 1870.10877 2234.699262 1739.265603 2126.425346 1668.793187 1974.528179 C 1569.185436 1759.734845 1622.96352 1590.000262 1720.710437 1495.868678 Z M 1720.710437 1495.868678 " stroke="#ffffff" stroke-width="40" stroke-opacity="1" stroke-miterlimit="10"/><path stroke-linecap="round" transform="matrix(0.146944, 0, 0, -0.146944, -124.902028, 499.902039)" fill="none" stroke-linejoin="round" d="M 1386.90352 2040.720679 C 1382.623603 1992.046596 1317.494436 1920.484262 1294.845436 1907.671095 C 1320.87052 1907.166012 1412.157686 1875.133095 1439.06002 1834.354262 C 1513.86552 1721.135845 1671.026187 1637.398345 1900.307437 1696.333595 C 2062.412604 1737.989679 2190.597437 1855.408262 2122.809937 2116.935096 C 2056.138937 2387.633179 1889.700687 2421.659846 1727.19677 2381.306346 C 1497.410436 2324.231929 1398.94577 2175.870346 1386.90352 2040.720679 Z M 1386.90352 2040.720679 " stroke="#ffffff" stroke-width="40" stroke-opacity="1" stroke-miterlimit="10"/><path stroke-linecap="round" transform="matrix(0.146944, 0, 0, -0.146944, -124.902028, 499.902039)" fill="none" stroke-linejoin="round" d="M 1601.962686 2642.354679 C 1561.369936 2615.213096 1464.792686 2621.061429 1440.628436 2630.631429 C 1456.52527 2610.055929 1488.82402 2518.875096 1473.937353 2472.354263 C 1432.653436 2343.052929 1465.988936 2168.134596 1655.66102 2026.498596 C 1789.80052 1926.306012 1961.635187 1900.174595 2122.809937 2116.935096 C 2291.879937 2338.640096 2213.99077 2489.606846 2080.675354 2590.915929 C 1892.11977 2734.067179 1714.808937 2717.745013 1601.962686 2642.354679 Z M 1601.962686 2642.354679 " stroke="#ffffff" stroke-width="40" stroke-opacity="1" stroke-miterlimit="10"/></svg>