<svg xmlns="http://www.w3.org/2000/svg" xmlns:xlink="http://www.w3.org/1999/xlink" width="500" zoomAndPan="magnify" viewBox="0 0 375 374.999991" height="500" preserveAspectRatio="xMidYMid meet" version="1.0"><path fill="#8a9a7b" d="M 375 187.503906 C 375 291.050781 291.050781 375 187.503906 375 C 83.945312 375 0 291.050781 0 187.503906 C 0 83.945312 83.945312 0 187.503906 0 C 291.050781 0 375 83.945312 375 187.503906 " fill-opacity="1" fill-rule="nonzero"/><path fill="#8a9a7b" d="M 265.796875 235.378906 C 265.796875 277.460938 249.058594 311.578125 187.503906 311.578125 C 134.941406 311.578125 109.203125 292.34375 109.203125 248.925781 C 109.203125 243.140625 109.203125 241.53125 109.203125 235.378906 C 109.203125 193.300781 107.625 159.179688 187.503906 159.179688 C 230.972656 159.179688 265.800781 167.121094 265.796875 185.273438 C 265.796875 200.847656 265.796875 216.195312 265.796875 235.378906 " fill-opacity="1" fill-rule="nonzero"/><path stroke-linecap="round" transform="matrix(0.146944, 0, 0, -0.146944, -124.902028, 499.902039)" fill="none" stroke-linejoin="round" d="M 2658.836271 1800.168095 C 2658.836271 1513.785845 2544.926687 1281.607012 2126.02652 1281.607012 C 1768.321187 1281.607012 1593.163603 1412.503345 1593.163603 1707.977095 C 1593.163603 1747.347012 1593.163603 1758.299345 1593.163603 1800.168095 C 1593.163603 2086.523762 1582.423936 2318.729179 2126.02652 2318.729179 C 2421.845854 2318.729179 2658.862854 2264.685262 2658.836271 2141.152512 C 2658.836271 2035.164762 2658.836271 1930.718845 2658.836271 1800.168095 Z M 2658.836271 1800.168095 " stroke="#ffffff" stroke-width="40" stroke-opacity="1" stroke-miterlimit="10"/><path stroke-linecap="round" transform="matrix(0.146944, 0, 0, -0.146944, -124.902028, 499.902039)" fill-opacity="1" fill="#8a9a7b" fill-rule="nonzero" stroke-linejoin="round" d="M 1803.544103 2164.040762 L 1803.544103 2798.558346 C 1803.544103 2847.87043 1853.706853 2887.82518 1915.619437 2887.82518 C 1977.585187 2887.82518 2027.721353 2847.87043 2027.721353 2798.558346 L 2027.721353 2164.040762 " stroke="#ffffff" stroke-width="40" stroke-opacity="1" stroke-miterlimit="10"/><path stroke-linecap="round" transform="matrix(0.146944, 0, 0, -0.146944, -124.902028, 499.902039)" fill-opacity="1" fill="#8a9a7b" fill-rule="nonzero" stroke-linejoin="round" d="M 2027.721353 2259.235679 L 2027.721353 2893.753263 C 2027.721353 2943.065346 2074.853604 2983.020096 2132.938187 2983.020096 C 2191.02277 2983.020096 2238.128437 2943.065346 2238.128437 2893.753263 L 2238.128437 2259.235679 " stroke="#ffffff" stroke-width="40" stroke-opacity="1" stroke-miterlimit="10"/><path stroke-linecap="round" transform="matrix(0.146944, 0, 0, -0.146944, -124.902028, 499.902039)" fill-opacity="1" fill="#8a9a7b" fill-rule="nonzero" stroke-linejoin="round" d="M 2238.128437 2164.040762 L 2238.128437 2798.558346 C 2238.128437 2847.87043 2285.20752 2887.82518 2343.292104 2887.82518 C 2401.376687 2887.82518 2448.482354 2847.87043 2448.482354 2798.558346 L 2448.482354 2164.040762 " stroke="#ffffff" stroke-width="40" stroke-opacity="1" stroke-miterlimit="10"/><path stroke-linecap="round" transform="matrix(0.146944, 0, 0, -0.146944, -124.902028, 499.902039)" fill-opacity="1" fill="#8a9a7b" fill-rule="nonzero" stroke-linejoin="round" d="M 2448.482354 2164.040762 L 2448.482354 2635.974679 C 2448.482354 2685.286763 2495.534854 2725.214929 2553.646021 2725.214929 C 2611.730604 2725.214929 2658.836271 2685.286763 2658.836271 2635.974679 L 2658.836271 2001.457096 " stroke="#ffffff" stroke-width="40" stroke-opacity="1" stroke-miterlimit="10"/><path stroke-linecap="round" transform="matrix(0.146944, 0, 0, -0.146944, -124.902028, 499.902039)" fill-opacity="1" fill="#8a9a7b" fill-rule="nonzero" stroke-linejoin="round" d="M 1593.163603 1694.074012 L 1593.163603 2328.591596 C 1593.163603 2377.903679 1592.33952 2417.858429 1640.26927 2417.858429 C 1640.26927 2417.858429 1803.544103 2366.286762 1803.544103 2189.800012 L 1803.544103 1888.398179 " stroke="#ffffff" stroke-width="40" stroke-opacity="1" stroke-miterlimit="10"/><path stroke-linecap="round" transform="matrix(0.146944, 0, 0, -0.146944, -124.902028, 499.902039)" fill="none" stroke-linejoin="round" d="M 1804.607437 1904.215262 C 1803.544103 1727.781679 1866.28077 1565.517012 2091.920104 1565.517012 C 2191.527854 1565.517012 2311.870604 1625.329512 2323.24827 1763.589429 C 2332.313187 1874.255845 2250.011187 1971.285012 2139.371354 1980.403095 C 2050.848854 1987.660346 1973.198937 1921.813429 1965.941687 1833.317512 C 1960.119937 1762.499512 2012.78152 1700.400845 2083.59952 1694.579095 C 2140.22202 1689.900429 2189.932854 1732.035012 2194.61152 1788.710679 C 2198.333187 1834.035262 2164.598937 1873.803929 2119.300937 1877.499012 C 2083.04127 1880.476345 2051.22102 1853.494262 2048.243687 1817.234595 " stroke="#ffffff" stroke-width="40" stroke-opacity="1" stroke-miterlimit="10"/></svg>